<svg width="32" height="32" viewBox="0 0 32 32" fill="none" xmlns="http://www.w3.org/2000/svg">
<path d="M27.3174 4.68077C25.0784 2.44462 22.2265 0.922257 19.1222 0.306106C16.0179 -0.310046 12.8006 0.00767994 9.87685 1.21912C6.95314 2.43056 4.45435 4.48133 2.69633 7.11219C0.938314 9.74305 0 12.8359 0 15.9998C0 19.1636 0.938314 22.2565 2.69633 24.8873C4.45435 27.5182 6.95314 29.569 9.87685 30.7804C12.8006 31.9918 16.0179 32.3096 19.1222 31.6934C22.2265 31.0773 25.0784 29.5549 27.3174 27.3187C30.316 24.3144 32 20.2438 32 15.9998C32 11.7558 30.316 7.68507 27.3174 4.68077ZM29.251 14.575C27.6508 14.7691 26.0273 14.5967 24.5036 14.0709C22.9799 13.5452 21.5957 12.6798 20.456 11.5402C19.3162 10.4007 18.4507 9.01697 17.9249 7.49367C17.3991 5.97038 17.2269 4.34748 17.4212 2.7478C20.45 3.06613 23.2776 4.41454 25.431 6.56745C27.5843 8.72036 28.9329 11.5472 29.251 14.575ZM2.73837 17.4245C4.33859 17.2304 5.962 17.4028 7.48574 17.9286C9.00947 18.4544 10.3936 19.3198 11.5334 20.4593C12.6731 21.5988 13.5386 22.9825 14.0644 24.5058C14.5902 26.0291 14.7625 27.652 14.5682 29.2517C11.5393 28.9334 8.71174 27.585 6.55837 25.4321C4.40499 23.2792 3.05646 20.4523 2.73837 17.4245ZM25.4305 25.4285C23.2381 27.6249 20.3451 28.9839 17.2544 29.2691C17.4459 27.3124 17.2011 25.3377 16.5377 23.487C15.8744 21.6363 14.8089 19.9556 13.4179 18.5658C12.0269 17.1761 10.345 16.1118 8.49335 15.4497C6.64165 14.7875 4.66616 14.5439 2.70901 14.7365C2.99926 11.6473 4.35983 8.75653 6.55563 6.56365C8.75142 4.37076 11.6445 3.01353 14.735 2.72646C14.5555 4.57612 14.7652 6.44285 15.3505 8.20668C15.9358 9.97051 16.8837 11.5924 18.1335 12.9681C19.3832 14.3438 20.9071 15.443 22.6071 16.1948C24.3071 16.9467 26.1457 17.3346 28.0046 17.3338C28.4276 17.3338 28.852 17.3124 29.2763 17.2724C28.9865 20.3578 27.6259 23.2446 25.4305 25.4325V25.4285Z" fill="white"/>
</svg>
