<svg width="32" height="32" viewBox="0 0 32 32" fill="none" xmlns="http://www.w3.org/2000/svg">
<path fill-rule="evenodd" clip-rule="evenodd" d="M16 0C20.4193 0 24.4193 1.79167 27.3125 4.6875C30.2083 7.58333 32 11.5833 32 16C32 20.4193 30.2083 24.4193 27.3125 27.3125C24.4167 30.2083 20.4167 32 16 32C11.5833 32 7.58073 30.2083 4.6875 27.3125C1.79167 24.4193 0 20.4193 0 16C0 11.5807 1.79167 7.58073 4.6875 4.6875C7.58073 1.79167 11.5807 0 16 0ZM20.013 30.4896L19.9818 30.4688L21.776 24.4557L18.0755 20.3516L13.7135 20.3125L10.2552 24.6406L11.9896 30.4531L11.9505 30.4792C13.2396 30.8385 14.5964 31.0313 16 31.0313C17.3906 31.0313 18.737 30.8438 20.013 30.4896ZM3.18229 23.8568L9.52083 23.888L12.8333 19.7396L11.4635 15.5417L5.88542 13.1198L0.984375 16.6875C1.10156 19.3073 1.89063 21.7526 3.18229 23.8568ZM4.36719 6.47917L6.29427 12.2448L11.4974 14.5052L15.5182 11.388V5.45313L10.5495 1.98698C8.59115 2.75 6.83073 3.91146 5.36979 5.3724C5.01823 5.72396 4.68229 6.09375 4.36719 6.47917ZM21.276 1.91927L16.4844 5.40885V11.3802L20.2604 14.2995L25.6797 11.9766L27.5495 6.38021C27.2578 6.02865 26.9505 5.69271 26.6276 5.36979C25.125 3.86719 23.3047 2.67969 21.276 1.91927ZM31.013 16.7604L31.0078 16.763L25.8047 12.974L20.6458 15.1849L19.0625 19.8802L22.638 23.8464C22.6536 23.862 22.6615 23.8802 22.6667 23.901L28.8125 23.8724C30.0938 21.7839 30.8828 19.3594 31.013 16.7604Z" fill="white"/>
</svg>
