<svg width="32" height="32" viewBox="0 0 32 32" fill="none" xmlns="http://www.w3.org/2000/svg">
<path d="M15.9721 2.44027e-05C13.1553 0.000103808 10.389 0.747474 7.95536 2.16587C7.8943 2.19685 7.83578 2.23259 7.78033 2.27276C4.45837 4.2619 1.97043 7.38819 0.777846 11.0719C-0.414736 14.7556 -0.23104 18.7469 1.29487 22.3055C2.82078 25.8641 5.58538 28.7486 9.076 30.4242C12.5666 32.0998 16.5465 32.4528 20.2775 31.4176C24.0085 30.3825 27.2376 28.0295 29.3659 24.7949C31.4943 21.5604 32.3775 17.6638 31.8518 13.8277C31.3261 9.99156 29.4272 6.47622 26.5071 3.93352C23.5871 1.39081 19.844 -0.00673467 15.9721 2.44027e-05ZM28.0265 21.7587C23.0929 23.2846 17.7771 23.0027 13.0326 20.9637C13.8796 19.651 14.951 18.4977 16.1979 17.5566C18.0865 18.3203 20.1037 18.7162 22.1409 18.723C24.6194 18.7228 27.0646 18.1512 29.2864 17.0529C29.1612 18.6859 28.734 20.2815 28.0265 21.7587ZM29.1662 14.0333C27.9541 14.788 26.6288 15.3433 25.2407 15.678C24.9529 11.3983 23.5382 7.27084 21.1401 3.71443C23.2481 4.6043 25.0927 6.01973 26.4978 7.82555C27.9029 9.63136 28.8216 11.7673 29.1662 14.0292V14.0333ZM16.9728 2.72303C20.3062 6.38339 22.2865 11.0743 22.5845 16.016C20.7586 16.0785 18.9394 15.7647 17.24 15.0941C17.1085 12.8598 16.5118 10.6776 15.4882 8.68716C14.4646 6.69675 13.0366 4.94204 11.2956 3.53539C12.7897 2.96817 14.374 2.67575 15.9721 2.67226C16.3101 2.67226 16.6401 2.69764 16.9728 2.72303ZM8.60605 4.89689C9.8612 5.71539 10.97 6.73883 11.8862 7.92453C7.88121 10.6102 4.76226 14.4229 2.92355 18.8807C2.34259 16.2486 2.57486 13.502 3.58962 11.0049C4.60438 8.5077 6.35375 6.37768 8.60605 4.89689ZM4.42267 22.7207C5.75648 17.6189 8.90023 13.1763 13.2678 10.2213C14.0586 11.8461 14.51 13.6151 14.5945 15.4201C12.7917 16.7901 11.2986 18.5255 10.2129 20.5125C9.12729 22.4996 8.47363 24.6936 8.29474 26.9508C6.71469 25.8358 5.39393 24.3929 4.42267 22.7207ZM15.9721 29.3946C14.2435 29.3941 12.5315 29.0564 10.9322 28.4005C10.9028 26.677 11.2077 24.9641 11.8301 23.3567C16.2218 25.3062 21.0989 25.8878 25.8259 25.0255C24.5788 26.4005 23.058 27.4996 21.361 28.252C19.664 29.0045 17.8284 29.3936 15.9721 29.3946Z" fill="white"/>
</svg>
