<svg width="72" height="54" viewBox="0 0 72 54" fill="none" xmlns="http://www.w3.org/2000/svg">
<path d="M23.0041 17.4782C23.0041 15.7231 21.5813 14.3003 19.8262 14.3003C18.0711 14.3003 16.6483 15.7231 16.6483 17.4782V19.0672H15.0594C13.3043 19.0672 11.8815 20.4899 11.8815 22.2451C11.8815 24.0002 13.3043 25.423 15.0594 25.423H16.6483V27.0119C16.6483 28.7671 18.0711 30.1898 19.8262 30.1898C21.5813 30.1898 23.0041 28.7671 23.0041 27.0119V25.423H24.5931C26.3482 25.423 27.771 24.0002 27.771 22.2451C27.771 20.4899 26.3482 19.0672 24.5931 19.0672H23.0041V17.4782Z" fill="url(#paint0_linear_32_24)"/>
<path d="M54.7832 15.8893C54.7832 17.6445 53.3604 19.0672 51.6053 19.0672C49.8501 19.0672 48.4274 17.6445 48.4274 15.8893C48.4274 14.1342 49.8501 12.7114 51.6053 12.7114C53.3604 12.7114 54.7832 14.1342 54.7832 15.8893Z" fill="url(#paint1_linear_32_24)"/>
<path d="M51.6053 31.7788C53.3604 31.7788 54.7832 30.356 54.7832 28.6009C54.7832 26.8457 53.3604 25.423 51.6053 25.423C49.8501 25.423 48.4274 26.8457 48.4274 28.6009C48.4274 30.356 49.8501 31.7788 51.6053 31.7788Z" fill="url(#paint2_linear_32_24)"/>
<path d="M48.4273 22.2452C48.4273 24.0003 47.0046 25.4231 45.2494 25.4231C43.4943 25.4231 42.0715 24.0003 42.0715 22.2452C42.0715 20.49 43.4943 19.0673 45.2494 19.0673C47.0046 19.0673 48.4273 20.49 48.4273 22.2452Z" fill="url(#paint3_linear_32_24)"/>
<path d="M57.9611 25.4231C59.7163 25.4231 61.139 24.0003 61.139 22.2452C61.139 20.49 59.7163 19.0673 57.9611 19.0673C56.206 19.0673 54.7832 20.49 54.7832 22.2452C54.7832 24.0003 56.206 25.4231 57.9611 25.4231Z" fill="url(#paint4_linear_32_24)"/>
<path fill-rule="evenodd" clip-rule="evenodd" d="M35.7158 -0.000244141C29.9571 -0.000244141 22.8846 0.820196 17.3405 1.61826C10.1115 2.6589 4.22576 7.99842 2.69709 15.2165C1.84163 19.2558 1.0033 24.0317 0.811193 28.0302C0.673449 30.897 0.371024 34.903 0.0506079 38.7458C-0.282751 42.7439 1.0495 46.8625 3.4943 49.7915C5.98909 52.7807 9.94024 54.7955 14.499 53.5199C17.4178 52.7028 19.7502 50.6515 21.4803 48.63C23.2489 46.5641 24.6564 44.2121 25.6588 42.2987C26.4306 40.8254 27.8007 39.9953 29.0911 39.9953H42.3404C43.6307 39.9953 45.001 40.8254 45.7726 42.2987C46.7752 44.2121 48.1827 46.5641 49.9512 48.63C51.6813 50.6515 54.0135 52.7028 56.9324 53.5199C61.4911 54.7955 65.4422 52.7807 67.9372 49.7915C70.382 46.8625 71.7142 42.7439 71.3808 38.7458C71.0605 34.903 70.7579 30.897 70.6203 28.0302C70.4281 24.0317 69.5897 19.2558 68.7342 15.2165C67.2057 7.99842 61.3199 2.6589 54.0908 1.61826C48.5469 0.820196 41.4745 -0.000244141 35.7158 -0.000244141ZM18.2461 7.90922C23.7269 7.12027 30.4303 6.35557 35.7158 6.35557C41.0013 6.35557 47.7044 7.12027 53.1854 7.90925C57.8499 8.58071 61.5557 11.996 62.5163 16.5334C63.3531 20.4834 64.1047 24.8583 64.2718 28.3353C64.4151 31.3212 64.7259 35.4217 65.0469 39.2739C65.2424 41.6164 64.4256 44.0799 63.0575 45.7191C61.7393 47.2985 60.2139 47.8381 58.6453 47.3992C57.4835 47.0738 56.1583 46.108 54.7797 44.4971C53.4393 42.9314 52.2867 41.0364 51.4026 39.3493C49.7122 36.1221 46.356 33.6395 42.3404 33.6395H29.0911C25.0754 33.6395 21.7193 36.1221 20.0288 39.3493C19.1448 41.0364 17.9921 42.9314 16.6518 44.4971C15.273 46.108 13.948 47.0738 12.786 47.3992C11.2176 47.8381 9.69195 47.2985 8.37385 45.7191C7.00579 44.0799 6.18914 41.6164 6.38445 39.2739C6.70564 35.4217 7.01622 31.3212 7.15967 28.3353C7.32673 24.8583 8.07843 20.4834 8.91498 16.5334C9.87592 11.996 13.5816 8.58071 18.2461 7.90922Z" fill="url(#paint5_linear_32_24)"/>
<defs>
<linearGradient id="paint0_linear_32_24" x1="28.4001" y1="26.7428" x2="11.5567" y2="26.1621" gradientUnits="userSpaceOnUse">
<stop stop-color="#BECA47"/>
<stop offset="1" stop-color="#18418E"/>
</linearGradient>
<linearGradient id="paint1_linear_32_24" x1="55.0348" y1="17.6884" x2="48.2975" y2="17.4562" gradientUnits="userSpaceOnUse">
<stop stop-color="#BECA47"/>
<stop offset="1" stop-color="#18418E"/>
</linearGradient>
<linearGradient id="paint2_linear_32_24" x1="55.0348" y1="30.4" x2="48.2975" y2="30.1677" gradientUnits="userSpaceOnUse">
<stop stop-color="#BECA47"/>
<stop offset="1" stop-color="#18418E"/>
</linearGradient>
<linearGradient id="paint3_linear_32_24" x1="48.679" y1="24.0443" x2="41.9416" y2="23.812" gradientUnits="userSpaceOnUse">
<stop stop-color="#BECA47"/>
<stop offset="1" stop-color="#18418E"/>
</linearGradient>
<linearGradient id="paint4_linear_32_24" x1="61.3907" y1="24.0443" x2="54.6533" y2="23.812" gradientUnits="userSpaceOnUse">
<stop stop-color="#BECA47"/>
<stop offset="1" stop-color="#18418E"/>
</linearGradient>
<linearGradient id="paint5_linear_32_24" x1="74.2595" y1="42.2145" x2="-1.39202" y2="38.7589" gradientUnits="userSpaceOnUse">
<stop stop-color="#BECA47"/>
<stop offset="1" stop-color="#18418E"/>
</linearGradient>
</defs>
</svg>
