<svg width="51" height="51" viewBox="0 0 51 51" fill="none" xmlns="http://www.w3.org/2000/svg">
<path fill-rule="evenodd" clip-rule="evenodd" d="M0.976685 10.8169C0.976685 5.29407 5.45383 0.816925 10.9767 0.816925H40.9767C46.4994 0.816925 50.9767 5.29407 50.9767 10.8169V40.8169C50.9767 46.3397 46.4994 50.8169 40.9767 50.8169H10.9767C5.45383 50.8169 0.976685 46.3397 0.976685 40.8169V10.8169ZM10.9767 5.81693C8.21526 5.81693 5.97668 8.0555 5.97668 10.8169V40.8169C5.97668 43.5784 8.21526 45.8169 10.9767 45.8169H25.9767V28.3169H23.4767C22.0959 28.3169 20.9767 27.1977 20.9767 25.8169C20.9767 24.4362 22.0959 23.3169 23.4767 23.3169H25.9767V19.5669C25.9767 14.7344 29.8942 10.8169 34.7267 10.8169H36.2267C37.6074 10.8169 38.7267 11.9362 38.7267 13.3169C38.7267 14.6976 37.6074 15.8169 36.2267 15.8169H34.7267C32.6557 15.8169 30.9767 17.4959 30.9767 19.5669V23.3169H36.2267C37.6074 23.3169 38.7267 24.4362 38.7267 25.8169C38.7267 27.1977 37.6074 28.3169 36.2267 28.3169H30.9767V45.8169H40.9767C43.7382 45.8169 45.9767 43.5784 45.9767 40.8169V10.8169C45.9767 8.0555 43.7382 5.81693 40.9767 5.81693H10.9767Z" fill="#FFFFFF"/>
</svg>
