<svg width="50" height="50" viewBox="0 0 50 50" fill="none" xmlns="http://www.w3.org/2000/svg">
<path fill-rule="evenodd" clip-rule="evenodd" d="M0 10C0 4.47715 4.47715 0 10 0H40C45.5228 0 50 4.47715 50 10V40C50 45.5228 45.5228 50 40 50H10C4.47715 50 0 45.5228 0 40V10ZM10 5C7.23857 5 5 7.23857 5 10V40C5 42.7615 7.23857 45 10 45H40C42.7615 45 45 42.7615 45 40V10C45 7.23857 42.7615 5 40 5H10ZM25 17.5C20.8577 17.5 17.5 20.8577 17.5 25C17.5 29.1423 20.8577 32.5 25 32.5C29.1423 32.5 32.5 29.1423 32.5 25C32.5 20.8577 29.1423 17.5 25 17.5ZM12.5 25C12.5 18.0964 18.0964 12.5 25 12.5C31.9035 12.5 37.5 18.0964 37.5 25C37.5 31.9035 31.9035 37.5 25 37.5C18.0964 37.5 12.5 31.9035 12.5 25ZM38.75 15C40.821 15 42.5 13.3211 42.5 11.25C42.5 9.17893 40.821 7.5 38.75 7.5C36.679 7.5 35 9.17893 35 11.25C35 13.3211 36.679 15 38.75 15Z" fill="#FFFFFF"/>
</svg>
