<svg width="21" height="17" viewBox="0 0 21 17" fill="none" xmlns="http://www.w3.org/2000/svg">
<path d="M1.5 4.5L6.94992 8.1333C8.23295 8.9886 8.8745 9.4163 9.5678 9.5825C10.1806 9.7293 10.8194 9.7293 11.4322 9.5825C12.1255 9.4163 12.7671 8.9886 14.0501 8.1333L19.5 4.5M4.7 15.5H16.3C17.4201 15.5 17.9802 15.5 18.408 15.282C18.7843 15.0903 19.0903 14.7843 19.282 14.408C19.5 13.9802 19.5 13.4201 19.5 12.3V4.7C19.5 3.5799 19.5 3.01984 19.282 2.59202C19.0903 2.21569 18.7843 1.90973 18.408 1.71799C17.9802 1.5 17.4201 1.5 16.3 1.5H4.7C3.5799 1.5 3.01984 1.5 2.59202 1.71799C2.21569 1.90973 1.90973 2.21569 1.71799 2.59202C1.5 3.01984 1.5 3.57989 1.5 4.7V12.3C1.5 13.4201 1.5 13.9802 1.71799 14.408C1.90973 14.7843 2.21569 15.0903 2.59202 15.282C3.01984 15.5 3.57989 15.5 4.7 15.5Z" stroke="white" stroke-width="2" stroke-linecap="round" stroke-linejoin="round"/>
</svg>
