<svg width="21" height="21" viewBox="0 0 21 21" fill="none" xmlns="http://www.w3.org/2000/svg">
<path d="M1.5 4C1.5 12.5604 8.43959 19.5 17 19.5C17.3862 19.5 17.7691 19.4859 18.1483 19.4581C18.5834 19.4262 18.8009 19.4103 18.999 19.2963C19.163 19.2019 19.3185 19.0345 19.4007 18.864C19.5 18.6582 19.5 18.4181 19.5 17.938V15.1207C19.5 14.7169 19.5 14.515 19.4335 14.342C19.3749 14.1891 19.2795 14.053 19.1559 13.9456C19.016 13.824 18.8262 13.755 18.4468 13.617L15.24 12.4509C14.7985 12.2904 14.5777 12.2101 14.3683 12.2237C14.1836 12.2357 14.0059 12.2988 13.8549 12.4058C13.6837 12.5271 13.5629 12.7285 13.3212 13.1314L12.5 14.5C9.8501 13.2999 7.7019 11.1489 6.5 8.5L7.86863 7.67882C8.27145 7.43713 8.47286 7.31628 8.5942 7.14506C8.7012 6.99408 8.7643 6.81637 8.7763 6.6317C8.7899 6.42227 8.7096 6.20153 8.5491 5.76005L7.38299 2.55321C7.245 2.17376 7.17601 1.98403 7.05442 1.8441C6.94701 1.72049 6.81089 1.62515 6.65802 1.56645C6.48496 1.5 6.28308 1.5 5.87932 1.5H3.06201C2.58188 1.5 2.34181 1.5 2.13598 1.59925C1.9655 1.68146 1.79814 1.83701 1.7037 2.00103C1.58968 2.19907 1.57375 2.41662 1.54189 2.85173C1.51413 3.23086 1.5 3.61378 1.5 4Z" stroke="white" stroke-width="2" stroke-linecap="round" stroke-linejoin="round"/>
</svg>
