<svg width="60" height="60" viewBox="0 0 60 60" fill="none" xmlns="http://www.w3.org/2000/svg">
<path fill-rule="evenodd" clip-rule="evenodd" d="M30 -0.000244141C38.2861 -0.000244141 45.7861 3.35913 51.2109 8.78882C56.6406 14.2185 60 21.7185 60 29.9998C60 38.2859 56.6406 45.7859 51.2109 51.2107C45.7812 56.6404 38.2812 59.9998 30 59.9998C21.7188 59.9998 14.2139 56.6404 8.78906 51.2107C3.35938 45.7859 0 38.2859 0 29.9998C0 21.7136 3.35938 14.2136 8.78906 8.78882C14.2139 3.35913 21.7139 -0.000244141 30 -0.000244141ZM37.5244 57.1677L37.4658 57.1287L40.8301 45.8542L33.8916 38.1589L25.7129 38.0857L19.2285 46.2009L22.4805 57.0994L22.4072 57.1482C24.8242 57.822 27.3682 58.1833 30 58.1833C32.6074 58.1833 35.1318 57.8318 37.5244 57.1677ZM5.9668 44.7312L17.8516 44.7898L24.0625 37.0115L21.4941 29.1404L11.0352 24.5994L1.8457 31.2888C2.06543 36.2009 3.54492 40.7859 5.9668 44.7312ZM8.18848 12.1482L11.8018 22.9587L21.5576 27.197L29.0967 21.3523V10.2244L19.7803 3.72534C16.1084 5.15601 12.8076 7.33374 10.0684 10.073C9.40918 10.7322 8.7793 11.4255 8.18848 12.1482ZM39.8926 3.59839L30.9082 10.1414V21.3376L37.9883 26.8113L48.1494 22.4558L51.6553 11.9626C51.1084 11.3035 50.5322 10.6736 49.9268 10.0681C47.1094 7.25073 43.6963 5.02417 39.8926 3.59839ZM58.1494 31.4255L58.1396 31.4304L48.3838 24.3259L38.7109 28.4714L35.7422 37.2751L42.4463 44.7117C42.4756 44.741 42.4902 44.7751 42.5 44.8142L54.0234 44.7605C56.4258 40.8445 57.9053 36.2986 58.1494 31.4255Z" fill="url(#paint0_linear_32_16)"/>
<defs>
<linearGradient id="paint0_linear_32_16" x1="62.3755" y1="46.9834" x2="-1.22625" y2="44.7909" gradientUnits="userSpaceOnUse">
<stop stop-color="#BECA47"/>
<stop offset="1" stop-color="#18418E"/>
</linearGradient>
</defs>
</svg>
