<svg width="60" height="60" viewBox="0 0 60 60" fill="none" xmlns="http://www.w3.org/2000/svg">
<path d="M51.1777 8.77227C46.9831 4.58159 41.6402 1.72858 35.8245 0.573875C30.0087 -0.580832 23.9812 0.0146061 18.5038 2.28492C13.0264 4.55524 8.34499 8.39851 5.05144 13.3289C1.75788 18.2593 0 24.0555 0 29.9848C0 35.914 1.75788 41.7102 5.05144 46.6406C8.34499 51.571 13.0264 55.4143 18.5038 57.6846C23.9812 59.9549 30.0087 60.5504 35.8245 59.3957C41.6402 58.241 46.9831 55.3879 51.1777 51.1973C56.7954 45.567 59.9503 37.9383 59.9503 29.9848C59.9503 22.0313 56.7954 14.4025 51.1777 8.77227ZM54.8002 27.3148C51.8023 27.6784 48.7609 27.3554 45.9062 26.37C43.0516 25.3847 40.4585 23.7629 38.3232 21.6274C36.188 19.4918 34.5664 16.8986 33.5814 14.0438C32.5964 11.1891 32.2737 8.14766 32.6377 5.14977C38.312 5.74634 43.6094 8.27335 47.6436 12.308C51.6779 16.3427 54.2043 21.6404 54.8002 27.3148ZM5.13019 32.6548C8.12812 32.2911 11.1695 32.6142 14.0241 33.5995C16.8788 34.5848 19.4719 36.2066 21.6071 38.3422C23.7424 40.4777 25.3639 43.071 26.349 45.9257C27.334 48.7805 27.6567 51.8219 27.2927 54.8198C21.6184 54.2232 16.321 51.6962 12.2868 47.6615C8.25253 43.6268 5.72612 38.3292 5.13019 32.6548ZM47.6427 47.6548C43.5354 51.771 38.1155 54.3178 32.3252 54.8523C32.6839 51.1855 32.2254 47.4847 30.9826 44.0163C29.7398 40.548 27.7436 37.3982 25.1377 34.7937C22.5318 32.1892 19.3809 30.1948 15.9119 28.9539C12.4428 27.713 8.7418 27.2565 5.07519 27.6173C5.61896 21.828 8.16792 16.4105 12.2816 12.3009C16.3953 8.1913 21.8154 5.64776 27.6052 5.10977C27.269 8.57615 27.6618 12.0745 28.7583 15.3801C29.8548 18.6856 31.6308 21.7251 33.9721 24.3033C36.3135 26.8815 39.1683 28.9413 42.3532 30.3503C45.5381 31.7593 48.9825 32.4864 52.4652 32.4848C53.2577 32.4848 54.0527 32.4448 54.8477 32.3698C54.3047 38.152 51.7558 43.562 47.6427 47.6623V47.6548Z" fill="url(#paint0_linear_32_11)"/>
<defs>
<linearGradient id="paint0_linear_32_11" x1="62.3239" y1="46.9599" x2="-1.22528" y2="44.7699" gradientUnits="userSpaceOnUse">
<stop stop-color="#BECA47"/>
<stop offset="1" stop-color="#18418E"/>
</linearGradient>
</defs>
</svg>
