<svg width="60" height="60" viewBox="0 0 60 60" fill="none" xmlns="http://www.w3.org/2000/svg">
<path d="M29.8852 -0.000198481C24.6148 -4.99054e-05 19.4387 1.39835 14.8852 4.0523C14.771 4.11027 14.6615 4.17714 14.5577 4.2523C8.34204 7.97417 3.68686 13.8238 1.45543 20.7164C-0.776011 27.609 -0.432297 35.0769 2.42283 41.7354C5.27796 48.3939 10.4508 53.7912 16.9821 56.9263C23.5134 60.0615 30.96 60.7219 37.9411 58.7851C44.9222 56.8482 50.9641 52.4455 54.9465 46.3934C58.9288 40.3413 60.5814 33.0504 59.5978 25.8726C58.6142 18.6949 55.0611 12.1174 49.5974 7.35974C44.1337 2.6021 37.13 -0.0128453 29.8852 -0.000198481ZM52.4402 40.7123C43.2091 43.5674 33.2627 43.0401 24.3852 39.2248C25.97 36.7687 27.9747 34.6107 30.3077 32.8498C33.8416 34.2788 37.6159 35.0196 41.4277 35.0323C46.0653 35.0318 50.6404 33.9625 54.7977 31.9073C54.5635 34.9629 53.7641 37.9484 52.4402 40.7123ZM54.5728 26.2573C52.3048 27.6695 49.825 28.7085 47.2277 29.3348C46.6893 21.327 44.0423 13.6042 39.5552 6.9498C43.4994 8.61484 46.9509 11.2632 49.58 14.6421C52.2091 18.0209 53.9281 22.0174 54.5728 26.2498V26.2573ZM31.7577 5.0948C37.9948 11.9437 41.7001 20.7208 42.2577 29.9673C38.8414 30.0842 35.4375 29.497 32.2577 28.2423C32.0116 24.0617 30.8952 19.9785 28.9799 16.2543C27.0646 12.53 24.3927 9.24678 21.1352 6.6148C23.9307 5.55347 26.8951 5.00634 29.8852 4.9998C30.5177 4.9998 31.1352 5.0473 31.7577 5.0948ZM16.1027 9.1623C18.4513 10.6938 20.5259 12.6087 22.2402 14.8273C14.7465 19.8524 8.91064 26.9863 5.47025 35.3273C4.3832 30.4023 4.81782 25.2634 6.71653 20.5909C8.61524 15.9185 11.8885 11.933 16.1027 9.1623ZM8.27525 42.5123C10.7709 32.9664 16.6532 24.6539 24.8252 19.1248C26.305 22.165 27.1497 25.4748 27.3077 28.8523C23.9345 31.4157 21.1407 34.6627 19.1094 38.3807C17.078 42.0987 15.855 46.2038 15.5202 50.4273C12.5638 48.341 10.0926 45.6412 8.27525 42.5123ZM29.8852 54.9998C26.6509 54.9989 23.4477 54.3671 20.4552 53.1398C20.4002 49.915 20.9707 46.71 22.1352 43.7023C30.3526 47.3501 39.4781 48.4382 48.3228 46.8248C45.9894 49.3977 43.1437 51.4541 39.9685 52.862C36.7932 54.2698 33.3586 54.998 29.8852 54.9998Z" fill="url(#paint0_linear_32_13)"/>
<defs>
<linearGradient id="paint0_linear_32_13" x1="62.2457" y1="46.8855" x2="-1.22369" y2="44.6976" gradientUnits="userSpaceOnUse">
<stop stop-color="#BECA47"/>
<stop offset="1" stop-color="#18418E"/>
</linearGradient>
</defs>
</svg>
